<?xml version="1.0" encoding="utf-8"?>
<!-- Generator: Adobe Illustrator 27.2.0, SVG Export Plug-In . SVG Version: 6.00 Build 0)  -->
<svg version="1.1" id="layer" xmlns="http://www.w3.org/2000/svg" xmlns:xlink="http://www.w3.org/1999/xlink" x="0px" y="0px"
	 viewBox="0 0 222 89.2" style="enable-background:new 0 0 222 89.2;" xml:space="preserve">
<style type="text/css">
	.st0{fill:#363A37;}
	.st1{fill:#E7E7E7;}
	.st2{fill:#DF1C2D;}
	.st3{fill:#FFFFFF;}
	.st4{fill:none;stroke:#FFFFFF;stroke-miterlimit:10;}
</style>
<g>
	<g>
		<path class="st0" d="M71.4,68.1c-3.5,0-7.1-1.7-9.7-4.5c-2.4-2.6-3.6-5.9-3.3-8.9C58.9,50,61,44.8,62.3,42L37,67.1
			c-0.1,0.1-0.2,0.1-0.3,0.1c0,0-19,0-19,0c-0.3,0-1.2,0-1.7-0.6c-0.3-0.4-0.5-0.9-0.4-1.4c0.1-1.7,11.4-39.5,12.9-44.5h-4.2
			c-0.6-0.1-1.7-0.7-1.4-2.2C23.1,16.9,33.2,2,34.4,0.3c0.1-0.1,0.2-0.2,0.3-0.2h63.5c0.2,0,1.6,0,2.2,1c0.4,0.7,0.2,1.7-0.5,2.9
			c-2,3.3-8.7,14.4-8.8,14.5c0,0,0,0.1-0.1,0.1c-0.1,0.1-0.1,0.1-0.2,0.2c0.9-0.1,3-0.3,5.2-0.3c4.1,0,7,0.6,8.6,1.8
			c0.2-0.4,0.7-0.9,1.3-0.9h45.2c0.1,0,0.1,0,0.2,0c0.2,0.1,0.7,0.4,0.9,0.8c1.2-0.6,4.1-1.6,7.6-1.6c1.7,0,3.4,0.3,5,0.8l13-16.8
			c0.1-0.1,0.2-0.1,0.3-0.1h19.8c0.1,0,1.9,0.3,2.5,1.5c0.3,0.7,0.1,1.5-0.5,2.3c-1.6,2.3-7.1,9.5-9,11.9c1-0.2,2.6-0.4,4.6-0.4
			c3.4,0,6.2,0.7,8.3,2.1c0.4-0.4,1.3-1,3-1h13.9c0.1,0,1,0.1,1.4,0.7c0.2,0.3,0.3,0.7,0.2,1.2c-0.2,1.3-10.2,17.1-11.3,18.9
			c-0.1,0.1-0.2,0.2-0.3,0.2H205c-0.3,0.1-0.6,0.2-0.6,0.3c0,0.1,0.2,0.3,0.4,0.5c0.3,0.4,0.9,1.1,1.3,2.1
			c0.9,2.1,1.2,11.5-7.7,18.3c-5.4,4.2-10.8,6.2-16.5,6.2c-3.2,0-6.5-0.6-10-1.9c-0.3,0.4-1,1.1-2,1.1h-14.6c-0.1,0-1.1,0-1.7-0.5
			c-0.3,0.2-0.9,0.5-1.5,0.5H82.2c-0.5,0-1-0.1-1.3-0.4C79.9,66.9,76.8,68.1,71.4,68.1z M162.3,45.7c0,0,0,0.1,0,0.1
			c0,0,0.1,0,0.2,0c0.1,0,0.3,0,0.5-0.1c0.7-0.2,0.9-0.5,1.1-0.7c0.2-0.2,0.4-0.5,0.8-0.5c0.1,0,0.3,0,2.1,0c1.5,0,3.3,0,4.1,0
			c-0.5-2.1-2.1-10.1,0.8-12.4c-0.2-0.1-0.4-0.3-0.9-0.3c-0.3,0-0.6,0.1-1,0.2L162.3,45.7C162.3,45.7,162.3,45.7,162.3,45.7z
			 M116.9,40.7c-0.1,0-0.1,0-0.2,0c0,0-1.4,0.2-2.8,2.5c-0.9,1.5-1.1,2.2-1.1,2.4C113.7,45,117.1,41.3,116.9,40.7L116.9,40.7z
			 M91.1,40.3c-0.3,0.1-1.6,0.5-3.2,2.2c-1.2,1.3-1.8,2.1-2,2.5c0.7-0.2,2.1-0.9,3.4-2.2C90.3,41.9,91,40.8,91.1,40.3z"/>
		<path class="st1" d="M98.2,0.5c0.1,0,3.3,0,1.4,3.3c-2,3.3-8.8,14.5-8.8,14.5s-0.9,0.9-0.1,0.9c0.1,0,0.1,0,0.2,0
			c0.5-0.1,2.7-0.3,5.2-0.3c3.2,0,7,0.4,8.7,2.1c0,0,0.4-1.1,1.2-1.1c0.8,0,45.2,0,45.2,0s1.3,0.7,0.6,1.1c0,0,3.6-1.9,8-1.9
			c1.6,0,3.3,0.2,5.1,0.9l13.2-17h19.8c0,0,3.6,0.5,1.7,3.3c-1.9,2.7-9.6,12.7-9.6,12.7s2.4-0.6,5.5-0.6c2.7,0,5.9,0.5,8.4,2.2
			c0,0,0.7-1.1,2.9-1.1c2.2,0,13.9,0,13.9,0s1.5,0.2,1.3,1.4c-0.2,1.3-11.3,18.8-11.3,18.8H205c0,0-0.9,0.2-1,0.6
			c-0.1,0.5,0.9,1,1.7,2.8c0.8,1.8,1.3,11-7.6,17.9c-5.5,4.3-10.8,6.1-16.3,6.1c-3.3,0-6.7-0.7-10.2-1.9c0,0-0.7,1.1-1.9,1.1
			c-1.2,0-14.6,0-14.6,0s-1.3,0-1.6-0.7c0,0-0.7,0.7-1.5,0.7c-0.8,0-69.8,0-69.8,0s-1.4-0.1-1.1-0.5c0,0-3.1,1.8-9.8,1.8
			c-6.6,0-13.2-6.3-12.6-13c0.6-6.7,4.8-14.5,4.8-14.5L36.8,66.8h-19c0,0,0,0,0,0c-0.3,0-1.9-0.1-1.7-1.7c0.2-1.8,13-44.9,13-44.9
			h-4.7c0,0-1.3-0.2-1.1-1.8c0.2-1.5,11.4-18,11.4-18H98.2C98.2,0.5,98.2,0.5,98.2,0.5 M162.6,46.2c0.2,0,0.3,0,0.6-0.1
			c1.4-0.4,1.1-1.1,1.8-1.2c0.2,0,1,0,2,0c2,0,4.6,0,4.6,0s-2.7-10.7,0.9-12.7c0,0-0.3-0.7-1.4-0.7c-0.3,0-0.8,0.1-1.3,0.3L162,45.5
			C162,45.5,161.8,46.2,162.6,46.2 M85.6,45.5C85.6,45.5,85.6,45.5,85.6,45.5c0.6-0.1,2.4-0.9,4-2.3c1.5-1.4,2.4-3.3,1.7-3.3
			c-0.1,0-0.1,0-0.2,0c0,0-1.5,0.3-3.5,2.4C85.7,44.3,85.1,45.5,85.6,45.5 M112.7,46.1c0,0,0.1,0,0.1,0c0.4-0.1,6-5.8,4.1-5.8
			c-0.1,0-0.2,0-0.3,0c0,0-1.5,0.2-3.1,2.7C112.2,45.4,112.3,46.1,112.7,46.1 M98.2-0.3L98.2-0.3H34.7c-0.2,0-0.5,0.1-0.6,0.3
			C31.4,4,22.7,16.8,22.5,18.4c-0.2,1.6,0.9,2.5,1.7,2.6c0,0,0.1,0,0.1,0H28C25.8,28.4,15.4,63.4,15.3,65c-0.1,0.9,0.2,1.4,0.5,1.7
			c0.7,0.7,1.7,0.8,1.9,0.8c0,0,0.1,0,0.1,0l19,0c0.2,0,0.4-0.1,0.5-0.2l23.8-23.6c-1.2,2.9-2.7,7.1-3.1,10.9
			c-0.3,3.2,0.9,6.5,3.4,9.2c2.7,2.9,6.4,4.7,9.9,4.7c5.1,0,8.2-1.1,9.5-1.6c0.3,0.2,0.7,0.3,1.3,0.3l69.8,0c0.6,0,1.1-0.2,1.4-0.4
			c0.6,0.4,1.5,0.4,1.7,0.4h14.6c1,0,1.8-0.6,2.2-1c3.5,1.2,6.8,1.8,9.9,1.8c5.8,0,11.3-2.1,16.8-6.3c4.9-3.8,6.9-8.2,7.6-11.3
			c0.9-3.6,0.6-6.5,0.1-7.5c-0.5-1.1-1-1.8-1.4-2.2c0,0-0.1-0.1-0.1-0.1c0.1,0,0.1,0,0.2,0h5.7c0.3,0,0.5-0.1,0.6-0.3
			c2.6-4.1,11.2-17.7,11.4-19c0.1-0.7-0.1-1.2-0.3-1.5c-0.6-0.7-1.5-0.8-1.6-0.9c0,0,0,0-0.1,0h-13.9c-1.5,0-2.5,0.5-3,0.9
			c-2.2-1.3-5-2-8.3-2c-1.4,0-2.7,0.1-3.7,0.3c2.2-2.9,7-9.1,8.4-11.2c0.7-1,0.9-1.9,0.5-2.7c-0.6-1.4-2.5-1.7-2.7-1.7
			c0,0-0.1,0-0.1,0h-19.8c-0.2,0-0.5,0.1-0.6,0.3L164.6,19c-1.5-0.5-3.1-0.8-4.8-0.8c-3.3,0-6,0.9-7.4,1.5c-0.3-0.3-0.7-0.6-0.9-0.7
			c-0.1-0.1-0.2-0.1-0.4-0.1H106c-0.6,0-1.1,0.3-1.4,0.8c-1.7-1.1-4.5-1.7-8.5-1.7c-1.8,0-3.4,0.1-4.4,0.2c1.2-2,6.8-11.2,8.6-14.1
			c0.8-1.3,0.9-2.4,0.5-3.2C100-0.2,98.4-0.3,98.2-0.3L98.2-0.3z M170.4,32.4c0.3-0.1,0.5-0.1,0.8-0.1c0.1,0,0.1,0,0.2,0
			c-2.4,2.7-1.2,9.3-0.6,11.9c-1,0-2.4,0-3.7,0c-1.6,0-2,0-2.1,0c-0.6,0.1-0.9,0.4-1.1,0.6c-0.2,0.2-0.3,0.4-0.9,0.5c0,0,0,0,0,0
			L170.4,32.4L170.4,32.4z M86.9,44.1c0.3-0.4,0.7-0.8,1.2-1.3c0.9-0.9,1.7-1.4,2.2-1.8c-0.3,0.5-0.7,1-1.3,1.6
			C88.3,43.3,87.6,43.8,86.9,44.1L86.9,44.1z M113.8,44.2c0.1-0.2,0.3-0.5,0.5-0.8c0.8-1.3,1.5-1.9,2-2.2
			C115.7,42.1,114.7,43.3,113.8,44.2L113.8,44.2z"/>
	</g>
	<g>
		<path class="st2" d="M37.7,5.3H60l-5.9,9.4h-5.3L40,40.7c0,0-0.7,1.7,0,2.3c0.7,0.6,2.1,0,3.1-1.2c1-1.2,23.3-25.1,23.3-25.1
			s0.1-0.5,0-1c-0.1-0.5,0-1.1-0.8-1.1c-0.8,0-3.7,0-3.7,0L67.8,6h23.8l-5.4,8.5h-6.3L34.2,61H22.7l13.1-44c0,0,0.7-2.4-0.8-2.4
			s-2.8,0-2.8,0L37.7,5.3z"/>
		<path class="st2" d="M129.2,25.5l-5.7,8.6c0,0,4.9-0.2,3.3,2.3c-1.7,2.6-10,15.5-10,15.5h-4.6l-5.6,8.8h20.2l5.4-8.4
			c0,0-3.7-0.2-3.1-1.5c0.6-1.3,10.2-18.1,16-17.7c5.8,0.4,4.4,3.6,1.7,7.8c-2.7,4.2-12.8,19.8-12.8,19.8h16l5.7-8.9
			c0,0-4.7,0.5-3.9-0.9c0.8-1.4,12.9-20.8,12.9-20.8s3.4-5-4.6-5s-17.5,6.6-17.7,6.6c-0.3,0-2.1-0.7-1.4-1.7c0.7-1,3-4.5,3-4.5
			H129.2z"/>
		<polygon class="st2" points="181.8,8.6 168.8,25.7 178.5,25.7 191.7,8.6 		"/>
		<path class="st2" d="M207.8,25.3h5.9l-6.1,9.2h-6.7c0,0-0.5-4.6-5.2-4.6s-6.3,3.6-5.8,4.6c0.6,1,10.3,9,10.2,12.7
			c-0.1,3.8-6.4,14.4-20.3,14.4c-4.7,0-10-3.5-10-3.5l-2.1,2.6h-6.4l6.7-10.3h6.1c0,0-0.6,6,5.4,6c6,0,6.5-3.9,6.5-5.2
			c0-1.2-3.2-4.8-4.8-6s-4.8-3-4.8-6.3s3.8-14.7,19.6-14.7c7.1,0,9.7,3.7,9.7,3.7L207.8,25.3z"/>
		<path class="st2" d="M108.7,25.2l-3.3,4.8c0,0-2.1-5.5-9.3-5.5s-18.1,4.9-24,13.2s-10.5,18.3-5,22.7c5.5,4.5,18.3-2.4,18.8-2.8
			c0.5-0.4,1.6-0.2,1.5,0.5c-0.1,0.7-1,2.6-1,2.6h13.3l5.7-8.8c0,0-3.8,0.1-3.3-0.9c0.5-1,10.4-16.6,10.4-16.6l3.7-0.1l5.4-9H108.7z
			 M95.7,44.7c-2.6,4.1-7.1,6.9-11.4,7.2c-4.3,0.3-7.8-2.2-3.7-10c4.1-8,12.2-7.8,12.2-7.8C100.9,34.4,98.2,40.9,95.7,44.7z"/>
	</g>
	<g>
		<path class="st3" d="M60,5.3l-5.9,9.4h-5.3L40,40.7c0,0-0.7,1.7,0,2.3c0.2,0.2,0.4,0.2,0.7,0.2c0.7,0,1.6-0.5,2.3-1.4
			c1-1.2,23.3-25.1,23.3-25.1s0.1-0.5,0-1c-0.1-0.5,0-1.1-0.8-1.1c-0.8,0-3.7,0-3.7,0L67.8,6h23.8l-5.4,8.5h-6.3L34.2,61H22.7
			l13.1-44c0,0,0.7-2.4-0.8-2.4c-1.5,0-2.8,0-2.8,0l5.5-9.3H60 M91.6,6L91.6,6 M60,3H37.7c-0.8,0-1.6,0.4-2,1.2l-5.5,9.3
			c-0.4,0.7-0.4,1.6,0,2.4c0.4,0.7,1.2,1.2,2,1.2h1.2L20.5,60.3c-0.2,0.7-0.1,1.5,0.4,2.1c0.4,0.6,1.1,0.9,1.9,0.9h11.5
			c0.6,0,1.2-0.3,1.7-0.7l45-45.8h5.3c0.8,0,1.6-0.4,2-1.1l5.4-8.4C93.8,7,94,6.5,94,6c0-1.3-1.1-2.4-2.4-2.4h0H67.8
			c-0.8,0-1.5,0.4-2,1L60,13.3c-0.5,0.7-0.5,1.7-0.1,2.4c0.4,0.8,1.2,1.3,2.1,1.3h1C58.6,21.7,48,33,43.4,38l7.1-20.9h3.6
			c0.8,0,1.6-0.4,2-1.1L62,6.6c0.5-0.7,0.5-1.6,0.1-2.4C61.7,3.4,60.9,3,60,3L60,3z M60,7.7L60,7.7L60,7.7L60,7.7z"/>
		<path class="st3" d="M160,25.1c8.1,0,4.6,5,4.6,5s-12.1,19.5-12.9,20.8c-0.5,0.8,1,1,2.3,1c0.8,0,1.6-0.1,1.6-0.1l-5.7,8.9h-16
			c0,0,10.1-15.6,12.8-19.8c2.7-4.2,4.1-7.3-1.7-7.8c-0.1,0-0.2,0-0.2,0c-5.9,0-15.2,16.4-15.8,17.7c-0.6,1.3,3.1,1.5,3.1,1.5
			l-5.4,8.4h-20.2l5.6-8.8h4.6c0,0,8.4-12.9,10-15.5c1.4-2.2-1.9-2.4-3-2.4c-0.2,0-0.3,0-0.3,0l5.7-8.6h14.6c0,0-2.3,3.5-3,4.5
			c-0.7,1,1.1,1.7,1.4,1.7C142.5,31.7,151.9,25.1,160,25.1 M143.8,25.5L143.8,25.5 M160,22.7c-5.1,0-10.5,2.3-14.3,4.3
			c0,0,0-0.1,0.1-0.1c0.3-0.4,0.5-0.9,0.5-1.4c0-1.3-1.1-2.4-2.4-2.4h0h-14.6c-0.8,0-1.5,0.4-2,1.1l-5.7,8.6
			c-0.5,0.7-0.5,1.7-0.1,2.5c0.4,0.7,1.2,1.2,2.1,1.2c0,0,0.1,0,0.1,0l0.2,0c0.1,0,0.1,0,0.2,0c-2.2,3.3-6.7,10.4-8.5,13.1h-3.4
			c-0.8,0-1.6,0.4-2,1.1l-5.6,8.8c-0.5,0.7-0.5,1.6-0.1,2.4c0.4,0.8,1.2,1.2,2.1,1.2h20.2c0.8,0,1.5-0.4,2-1.1l5.4-8.4
			c0.5-0.7,0.5-1.6,0.1-2.3c-0.4-0.7-1.1-1.2-2-1.3c0,0-0.1,0-0.1,0c2.9-5.1,9.6-14.5,12.7-14.5c1.1,0.1,1.7,0.3,1.9,0.4
			c-0.1,0.4-0.5,1.4-2,3.8c-2.7,4.2-12.8,19.8-12.8,19.8c-0.5,0.7-0.5,1.6-0.1,2.4c0.4,0.8,1.2,1.2,2.1,1.2h16c0.8,0,1.6-0.4,2-1.1
			l5.7-8.9c0.5-0.8,0.5-1.7,0-2.5c-0.4-0.7-1.2-1.1-2-1.1c-0.1,0-0.1,0-0.2,0c0,0,0,0,0,0c2.7-4.4,8.1-13.1,11.2-18.2
			c0.2-0.2,1.9-3,0.6-5.6C165.6,22.7,161.3,22.7,160,22.7L160,22.7z"/>
		<path class="st3" d="M191.7,8.6L191.7,8.6 M191.7,8.6l-13.2,17.1h-9.7l13-17.1H191.7 M191.7,6.2L191.7,6.2h-9.9
			c-0.7,0-1.4,0.3-1.9,0.9l-13,17.1c-0.5,0.7-0.6,1.7-0.2,2.5c0.4,0.8,1.2,1.3,2.1,1.3h9.7c0.7,0,1.4-0.3,1.9-0.9l13.1-17
			c0.4-0.4,0.6-0.9,0.6-1.5C194,7.3,193,6.2,191.7,6.2L191.7,6.2z M191.7,10.9L191.7,10.9L191.7,10.9L191.7,10.9z"/>
		<path class="st3" d="M196,24.3c7.1,0,9.7,3.7,9.7,3.7l2.1-2.7h5.9l-6.1,9.2h-6.7c0,0-0.5-4.6-5.2-4.6c-4.6,0-6.3,3.6-5.8,4.6
			c0.6,1,10.3,9,10.2,12.7c-0.1,3.8-6.4,14.4-20.3,14.4c-4.7,0-10-3.5-10-3.5l-2.1,2.6h-6.4l6.7-10.3h6.1c0,0-0.6,6,5.4,6
			s6.5-3.9,6.5-5.2c0-1.2-3.2-4.8-4.8-6c-1.6-1.1-4.8-3-4.8-6.3C176.4,35.7,180.3,24.3,196,24.3 M174.2,50.5L174.2,50.5 M196,22
			c-16.4,0-21.9,11.7-21.9,17.1c0,4.2,3.4,6.6,5.3,7.9l0.5,0.3c1.2,0.9,3.3,3.4,3.8,4.3c-0.1,1.7-1.5,2.6-4.1,2.6
			c-1.6,0-2.1-0.6-2.3-0.8c-0.7-0.7-0.8-2-0.7-2.6c0-0.1,0-0.2,0-0.3c0-1.3-1-2.4-2.4-2.4h0h-6.1c-0.8,0-1.5,0.4-2,1.1l-6.7,10.3
			c-0.5,0.7-0.5,1.6-0.1,2.4c0.4,0.8,1.2,1.2,2.1,1.2h6.4c0.7,0,1.4-0.3,1.8-0.9l0.8-1c2.2,1.1,5.9,2.8,9.4,2.8
			c15.6,0,22.5-11.9,22.7-16.7c0.1-3.5-4.2-7.9-8.9-12.5c-0.4-0.4-0.8-0.8-1.2-1.1c0.4-0.6,1.3-1.4,3.3-1.4c2.4,0,2.8,2.3,2.8,2.5
			c0.1,1.2,1.1,2.1,2.3,2.1h6.7c0.8,0,1.5-0.4,2-1.1l6.1-9.2c0.5-0.7,0.5-1.7,0.1-2.4c-0.4-0.8-1.2-1.2-2.1-1.2h-5.9
			c-0.7,0-1.4,0.3-1.9,0.9l-0.5,0.7C203.6,23.3,200.6,22,196,22L196,22z"/>
		<path class="st3" d="M96.1,24.4c7.3,0,9.3,5.5,9.3,5.5l3.3-4.8h12.9l-5.4,9l-3.7,0.1c0,0-9.8,15.6-10.4,16.6
			c-0.4,0.8,2,0.9,2.9,0.9c0.2,0,0.3,0,0.3,0l-5.7,8.8H86.4c0,0,1-1.9,1-2.6c0-0.4-0.4-0.7-0.9-0.7c-0.3,0-0.5,0.1-0.7,0.2
			c-0.3,0.3-7.8,4.3-13.7,4.3c-1.9,0-3.7-0.4-5-1.5c-5.5-4.5-0.8-14.4,5-22.7S88.9,24.4,96.1,24.4 M83.7,52c0.2,0,0.4,0,0.6,0
			c4.3-0.3,8.8-3.1,11.4-7.2c2.4-3.9,5.1-10.4-3-10.6c0,0,0,0-0.1,0c-0.7,0-8.2,0.2-12.1,7.8C76.8,49.4,79.7,52,83.7,52 M121.6,25.2
			L121.6,25.2 M96.1,22.1c-7.7,0-19.4,5-25.9,14.2c-11,15.6-8.6,22.7-4.6,25.9c1.7,1.3,3.9,2,6.5,2c4.2,0,8.9-1.7,12-3.1
			c0.1,0.2,0.2,0.5,0.3,0.7c0.4,0.7,1.2,1.1,2,1.1h13.3c0.8,0,1.5-0.4,2-1.1l5.7-8.8c0.5-0.7,0.5-1.7,0.1-2.4
			c-0.4-0.6-1-1.1-1.7-1.2c2-3.2,5.4-8.7,8.1-12.9l2.5-0.1c0.8,0,1.5-0.5,2-1.2l5.3-8.9c0.3-0.4,0.4-0.8,0.4-1.3
			c0-1.3-1.1-2.4-2.4-2.4h0h-12.9c-0.8,0-1.5,0.4-1.9,1l-1.3,1.9C103.7,24,100.8,22.1,96.1,22.1L96.1,22.1z M83.7,49.6
			c-0.6,0-1.9-0.1-2.3-0.8c-0.4-0.7-0.3-2.6,1.3-5.8c3.3-6.4,9.3-6.5,10-6.5c1.6,0.1,2.7,0.4,3,1c0.4,0.8,0,3-2,6.1
			c-2.2,3.4-6,5.9-9.6,6.1C84,49.6,83.9,49.6,83.7,49.6L83.7,49.6z"/>
	</g>
	<g>
		<path class="st3" d="M60,5.3l-5.9,9.4h-5.3L40,40.7c0,0-0.7,1.7,0,2.3c0.2,0.2,0.4,0.2,0.7,0.2c0.7,0,1.6-0.5,2.3-1.4
			c1-1.2,23.3-25.1,23.3-25.1s0.1-0.5,0-1c-0.1-0.5,0-1.1-0.8-1.1c-0.8,0-3.7,0-3.7,0L67.8,6h23.8l-5.4,8.5h-6.3L34.2,61H22.7
			l13.1-44c0,0,0.7-2.4-0.8-2.4c-1.5,0-2.8,0-2.8,0l5.5-9.3H60 M91.6,6L91.6,6 M60,3H37.7c-0.8,0-1.6,0.4-2,1.2l-5.5,9.3
			c-0.4,0.7-0.4,1.6,0,2.4c0.4,0.7,1.2,1.2,2,1.2h1.2L20.5,60.3c-0.2,0.7-0.1,1.5,0.4,2.1c0.4,0.6,1.1,0.9,1.9,0.9h11.5
			c0.6,0,1.2-0.3,1.7-0.7l45-45.8h5.3c0.8,0,1.6-0.4,2-1.1l5.4-8.4C93.8,7,94,6.5,94,6c0-1.3-1.1-2.4-2.4-2.4h0H67.8
			c-0.8,0-1.5,0.4-2,1L60,13.3c-0.5,0.7-0.5,1.7-0.1,2.4c0.4,0.8,1.2,1.3,2.1,1.3h1C58.6,21.7,48,33,43.4,38l7.1-20.9h3.6
			c0.8,0,1.6-0.4,2-1.1L62,6.6c0.5-0.7,0.5-1.6,0.1-2.4C61.7,3.4,60.9,3,60,3L60,3z M60,7.7L60,7.7L60,7.7L60,7.7z"/>
		<path class="st3" d="M160,25.1c8.1,0,4.6,5,4.6,5s-12.1,19.5-12.9,20.8c-0.5,0.8,1,1,2.3,1c0.8,0,1.6-0.1,1.6-0.1l-5.7,8.9h-16
			c0,0,10.1-15.6,12.8-19.8c2.7-4.2,4.1-7.3-1.7-7.8c-0.1,0-0.2,0-0.2,0c-5.9,0-15.2,16.4-15.8,17.7c-0.6,1.3,3.1,1.5,3.1,1.5
			l-5.4,8.4h-20.2l5.6-8.8h4.6c0,0,8.4-12.9,10-15.5c1.4-2.2-1.9-2.4-3-2.4c-0.2,0-0.3,0-0.3,0l5.7-8.6h14.6c0,0-2.3,3.5-3,4.5
			c-0.7,1,1.1,1.7,1.4,1.7C142.5,31.7,151.9,25.1,160,25.1 M143.8,25.5L143.8,25.5 M160,22.7c-5.1,0-10.5,2.3-14.3,4.3
			c0,0,0-0.1,0.1-0.1c0.3-0.4,0.5-0.9,0.5-1.4c0-1.3-1.1-2.4-2.4-2.4h0h-14.6c-0.8,0-1.5,0.4-2,1.1l-5.7,8.6
			c-0.5,0.7-0.5,1.7-0.1,2.5c0.4,0.7,1.2,1.2,2.1,1.2c0,0,0.1,0,0.1,0l0.2,0c0.1,0,0.1,0,0.2,0c-2.2,3.3-6.7,10.4-8.5,13.1h-3.4
			c-0.8,0-1.6,0.4-2,1.1l-5.6,8.8c-0.5,0.7-0.5,1.6-0.1,2.4c0.4,0.8,1.2,1.2,2.1,1.2h20.2c0.8,0,1.5-0.4,2-1.1l5.4-8.4
			c0.5-0.7,0.5-1.6,0.1-2.3c-0.4-0.7-1.1-1.2-2-1.3c0,0-0.1,0-0.1,0c2.9-5.1,9.6-14.5,12.7-14.5c1.1,0.1,1.7,0.3,1.9,0.4
			c-0.1,0.4-0.5,1.4-2,3.8c-2.7,4.2-12.8,19.8-12.8,19.8c-0.5,0.7-0.5,1.6-0.1,2.4c0.4,0.8,1.2,1.2,2.1,1.2h16c0.8,0,1.6-0.4,2-1.1
			l5.7-8.9c0.5-0.8,0.5-1.7,0-2.5c-0.4-0.7-1.2-1.1-2-1.1c-0.1,0-0.1,0-0.2,0c0,0,0,0,0,0c2.7-4.4,8.1-13.1,11.2-18.2
			c0.2-0.2,1.9-3,0.6-5.6C165.6,22.7,161.3,22.7,160,22.7L160,22.7z"/>
		<path class="st3" d="M191.7,8.6L191.7,8.6 M191.7,8.6l-13.2,17.1h-9.7l13-17.1H191.7 M191.7,6.2L191.7,6.2h-9.9
			c-0.7,0-1.4,0.3-1.9,0.9l-13,17.1c-0.5,0.7-0.6,1.7-0.2,2.5c0.4,0.8,1.2,1.3,2.1,1.3h9.7c0.7,0,1.4-0.3,1.9-0.9l13.1-17
			c0.4-0.4,0.6-0.9,0.6-1.5C194,7.3,193,6.2,191.7,6.2L191.7,6.2z M191.7,10.9L191.7,10.9L191.7,10.9L191.7,10.9z"/>
		<path class="st3" d="M196,24.3c7.1,0,9.7,3.7,9.7,3.7l2.1-2.7h5.9l-6.1,9.2h-6.7c0,0-0.5-4.6-5.2-4.6c-4.6,0-6.3,3.6-5.8,4.6
			c0.6,1,10.3,9,10.2,12.7c-0.1,3.8-6.4,14.4-20.3,14.4c-4.7,0-10-3.5-10-3.5l-2.1,2.6h-6.4l6.7-10.3h6.1c0,0-0.6,6,5.4,6
			s6.5-3.9,6.5-5.2c0-1.2-3.2-4.8-4.8-6c-1.6-1.1-4.8-3-4.8-6.3C176.4,35.7,180.3,24.3,196,24.3 M174.2,50.5L174.2,50.5 M196,22
			c-16.4,0-21.9,11.7-21.9,17.1c0,4.2,3.4,6.6,5.3,7.9l0.5,0.3c1.2,0.9,3.3,3.4,3.8,4.3c-0.1,1.7-1.5,2.6-4.1,2.6
			c-1.6,0-2.1-0.6-2.3-0.8c-0.7-0.7-0.8-2-0.7-2.6c0-0.1,0-0.2,0-0.3c0-1.3-1-2.4-2.4-2.4h0h-6.1c-0.8,0-1.5,0.4-2,1.1l-6.7,10.3
			c-0.5,0.7-0.5,1.6-0.1,2.4c0.4,0.8,1.2,1.2,2.1,1.2h6.4c0.7,0,1.4-0.3,1.8-0.9l0.8-1c2.2,1.1,5.9,2.8,9.4,2.8
			c15.6,0,22.5-11.9,22.7-16.7c0.1-3.5-4.2-7.9-8.9-12.5c-0.4-0.4-0.8-0.8-1.2-1.1c0.4-0.6,1.3-1.4,3.3-1.4c2.4,0,2.8,2.3,2.8,2.5
			c0.1,1.2,1.1,2.1,2.3,2.1h6.7c0.8,0,1.5-0.4,2-1.1l6.1-9.2c0.5-0.7,0.5-1.7,0.1-2.4c-0.4-0.8-1.2-1.2-2.1-1.2h-5.9
			c-0.7,0-1.4,0.3-1.9,0.9l-0.5,0.7C203.6,23.3,200.6,22,196,22L196,22z"/>
		<path class="st3" d="M96.1,24.4c7.3,0,9.3,5.5,9.3,5.5l3.3-4.8h12.9l-5.4,9l-3.7,0.1c0,0-9.8,15.6-10.4,16.6
			c-0.4,0.8,2,0.9,2.9,0.9c0.2,0,0.3,0,0.3,0l-5.7,8.8H86.4c0,0,1-1.9,1-2.6c0-0.4-0.4-0.7-0.9-0.7c-0.3,0-0.5,0.1-0.7,0.2
			c-0.3,0.3-7.8,4.3-13.7,4.3c-1.9,0-3.7-0.4-5-1.5c-5.5-4.5-0.8-14.4,5-22.7S88.9,24.4,96.1,24.4 M83.7,52c0.2,0,0.4,0,0.6,0
			c4.3-0.3,8.8-3.1,11.4-7.2c2.4-3.9,5.1-10.4-3-10.6c0,0,0,0-0.1,0c-0.7,0-8.2,0.2-12.1,7.8C76.8,49.4,79.7,52,83.7,52 M121.6,25.2
			L121.6,25.2 M96.1,22.1c-7.7,0-19.4,5-25.9,14.2c-11,15.6-8.6,22.7-4.6,25.9c1.7,1.3,3.9,2,6.5,2c4.2,0,8.9-1.7,12-3.1
			c0.1,0.2,0.2,0.5,0.3,0.7c0.4,0.7,1.2,1.1,2,1.1h13.3c0.8,0,1.5-0.4,2-1.1l5.7-8.8c0.5-0.7,0.5-1.7,0.1-2.4
			c-0.4-0.6-1-1.1-1.7-1.2c2-3.2,5.4-8.7,8.1-12.9l2.5-0.1c0.8,0,1.5-0.5,2-1.2l5.3-8.9c0.3-0.4,0.4-0.8,0.4-1.3
			c0-1.3-1.1-2.4-2.4-2.4h0h-12.9c-0.8,0-1.5,0.4-1.9,1l-1.3,1.9C103.7,24,100.8,22.1,96.1,22.1L96.1,22.1z M83.7,49.6
			c-0.6,0-1.9-0.1-2.3-0.8c-0.4-0.7-0.3-2.6,1.3-5.8c3.3-6.4,9.3-6.5,10-6.5c1.6,0.1,2.7,0.4,3,1c0.4,0.8,0,3-2,6.1
			c-2.2,3.4-6,5.9-9.6,6.1C84,49.6,83.9,49.6,83.7,49.6L83.7,49.6z"/>
	</g>
	<polygon class="st4" points="52.8,20.2 51.7,23.4 54.5,20.2 	"/>
</g>
<g>
	<path class="st0" d="M3,89l5.3-19.8H28l-1,3.5H13.8l-1.3,4.8h11.8l-0.9,3.5H11.5l-1.2,4.6h13.6L23.1,89H3z"/>
	<path class="st0" d="M32.5,89H25l12.9-10.4l-6.6-9.4h7.4l3.9,5.9l7-5.9h7.4l-11.7,9.4L52.8,89h-7.5l-4.7-6.8L32.5,89z"/>
	<path class="st0" d="M57.1,76.6c0.7-2.6,2.5-7.8,15.3-7.8c3.3,0,6.1,0.2,8.6,0.5L80,72.8c-2.2-0.3-5.9-0.4-8.6-0.4
		c-4.3,0-7,1.2-8,4.6l-1.2,4.5c-0.9,3.2,0.9,4.3,5.6,4.3c2.7,0,6.5-0.1,8.8-0.4l-0.9,3.4c-2.6,0.3-5.5,0.5-8.8,0.5
		c-12.8,0-11.8-5.1-11.1-7.8L57.1,76.6z"/>
	<path class="st0" d="M85.8,69.1h6.4l-4.4,16.3H100L99.2,89H80.5L85.8,69.1z"/>
	<path class="st0" d="M127.8,81.5c-1.5,5.5-4.8,7.7-13.6,7.7h-0.3c-9.1,0-11-2.5-9.6-7.7l3.3-12.4h6.4l-3.3,12.4
		c-0.8,2.8-0.1,4.2,4,4.2h0.3c3.9,0,5.5-1.2,6.3-4.2l3.3-12.4h6.4L127.8,81.5z"/>
	<path class="st0" d="M154.8,73.1c-1.6-0.4-6.6-0.7-8.1-0.7c-3.1,0-5.1,0.3-5.5,2c-0.3,1,0.8,1.5,2.8,2.2l4.7,1.7
		c3.3,1.2,4.8,2.7,4.1,5.6c-1.1,4.3-5.7,5.2-13,5.2c-1.5,0-5.8-0.3-9.3-0.9l1-3.7c3.6,0.8,7.8,1.1,9.1,1.1c3.2,0,5.4-0.4,5.8-1.8
		c0.3-1.3-0.3-1.7-1.6-2.2l-5-1.8c-3.8-1.5-5.8-2.7-5-5.6c1.2-4.4,5.5-5.4,12.9-5.4c1.4,0,5,0.2,8,0.8L154.8,73.1z"/>
	<path class="st0" d="M161.5,69.1h6.4L162.6,89h-6.4L161.5,69.1z"/>
	<path class="st0" d="M178,69.1l2.9,13.9l10.4-13.9h6.9c-5.4,6.7-10.6,13.1-16,19.8h-5.8l-5.3-19.8H178z"/>
	<path class="st0" d="M196.1,89l5.3-19.8h19.7l-1,3.5h-13.3l-1.3,4.8h11.8l-0.9,3.5h-11.8l-1.2,4.6h13.6l-0.9,3.5H196.1z"/>
</g>
</svg>
