<?xml version="1.0" encoding="utf-8"?>
<!-- Generator: Adobe Illustrator 27.2.0, SVG Export Plug-In . SVG Version: 6.00 Build 0)  -->
<svg version="1.1" id="layer" xmlns="http://www.w3.org/2000/svg" xmlns:xlink="http://www.w3.org/1999/xlink" x="0px" y="0px"
	 viewBox="0 0 600 113.9" style="enable-background:new 0 0 600 113.9;" xml:space="preserve">
<style type="text/css">
	.st0{fill:#D52329;}
</style>
<path class="st0" d="M577.6,50.7c3.6,0,6.6-1.1,6.6-2.5s-3-2.5-6.6-2.5s-6.6,1.1-6.6,2.5C571,49.5,574,50.7,577.6,50.7"/>
<path class="st0" d="M596,51.1c2.2,0,4-0.8,4-1.7c0-0.9-1.8-1.7-4-1.7s-3.9,0.8-3.9,1.7C592.1,50.3,593.9,51.1,596,51.1"/>
<path class="st0" d="M51.8,23.7C40.8,42.3,2.5,106.3,0.5,111c-1.4,3.3,0.2,3.4,2.8,2.2c2-1.3,3.1,1.5,6.5-4.7
	C10,108.1,53.1,36.3,55.4,35c1.9-1,0.2,10.9,8.7,11c6.1,0,31.2-17.6,32-17.8c0.9-0.2,0.9-0.4,1.3,0.2c0.3,0.4-0.6,1.6-1.2,2.6
	c-10,14.8-27.1,40.2-29.3,45.7c-0.6,1.3,8.4-2.3,9.3-3.6c4.9-6.8,38.2-53.2,41.2-60.3l0.2-0.1c0.8-2,0.8-4.6-0.7-4.6
	c-6.1,0.7-36.4,28.4-44.8,28.4C60,36.4,74.2,4,74.6,3.2V3.1c0.3-0.7,0.9-3.2-0.1-3.1c-1.9,0.1-12.1,5.7-13.4,6.7
	C57.2,10,56.9,15.1,51.8,23.7 M435.1,22.5c0,0,4.2-6,3.4-5.9c-1,0-5,2-5.4,2.3c-6.6,6.2-13.9,23-13.9,23
	C421.6,40.1,433.1,24.7,435.1,22.5 M226.6,49.1c2.1-1.5,7.6-5.2,8.2-6.8c0.2-0.4,0.2-0.5-0.4-0.5c-4.1,0-7.7,3.4-9.9,8.1
	C224.5,50.2,224.7,50.4,226.6,49.1 M137.3,63.9c-0.7,0.4-8.3,6.2-13,6.2c-10.8,0-5-9.8-6-9.7c-0.1,0-16.8,10.7-23.6,12.8
	c-0.6,0.2-3,1.2-5.4,0.4c-2.6-0.9-1.7-3.2-1.4-3.9c0.6-1.3,2.8-3.5,2.9-3.8c0.3-0.6-0.5-0.6-0.6-0.6c-0.6-0.3,1.1-4.2,1.3-4.8
	c0.8-2,32.6-20.5,40.8-23.6c0.6-0.2,1.6-1,5.1-1c1.3,0,2.5,1.2,2,2.4c-0.3,0.7,1.8,3.6,0.2,4.6c-0.5,0.4-7.6,0-8.3,0.4
	c-3.3,2-4.7,3.3-9.5,6.4c-8.4,5.3-16.8,11.5-18.9,13.1c-0.1,0.2-0.7,0.7-0.1,0.7c5,0,21.7-13.5,27.3-13.5c2.7,0,0.7,3.4,0.4,5
	c0,0-4.2,7.3,0.9,7.3c2.9,0,11.4-6.1,11.4-6.1s10.4-7,16.9-11.4c5.9-4,10.2-7.7,14.2-7.7c3.6,0,3.6,3,2.9,5.6
	c-0.4,1-9.7,15.8-15.5,21.5c-0.1,0.2-0.3,0.4-0.4,0.6c0,0.2,0.2,0.3,0.5,0.3c1.2,0,9.5-5,14-7.5s25.5-20,28.4-23.2
	c0.2-0.5-13.3-0.8-13.4-0.8c-1.3-0.2-3.3-1-3-2.3c0.9-1.7,2.2-5.6,4.8-6.3c1.8,0,17.5,0.1,17.9,0.2c0.8,0,1.7,0.2,2.6-0.3
	c2.3-2.3,4.6-4.8,5.9-6.3c1.8-1.4,3.3-2.8,5-2.8c2,0,2.1,2,1.5,3.4c-0.3,0.6-3.7,4.8-4,5.4c-0.1,0.2-0.6,0.9-0.6,0.9
	c1.2,0.3,10.8-0.1,10.6,0.3c-2.8,6.7-7.9,8.2-17.8,8.5c-0.3,0-0.5,0.6-0.7,0.8c-2.7,2.7-18.4,26.7-18.6,27.1c-0.3,0.6-1,2.4-0.1,2.4
	c2,0,10-4,10.3-4c0.3-0.2,7.7-3.9,8.3-4.5c0.4-0.3,2.2-3.8,3.4-5.7c2.6-4.1,8-8.4,14.5-12.9c4.6-3.2,8-4.2,10.5-4.2
	c2.1,0,2.8,4,2.2,5.5c-0.3,0.6-1.2,2-2.3,3.1c-4.4,4.5-18.6,13.7-18.6,13.7c-1,2.3-0.3,6.4,3.4,6.4c7,0,10.6-2.8,13.1-4.2
	c2.4-1.5,5-3.4,7.9-5.6c5.7-3.6,7.6-6.1,7.8-6.5v-0.1l0.2-1.6c0.4-0.8,7.2-5.2,10.8-5.2c6.4,0,7.5,9.2,6.2,12.4
	c-2,4.7-7.1,8.8-9.1,13.5c-0.1,0.2,0,0.5,0.3,0.4c3.4-0.8,9.9-5,10-5c0.8-0.8,32.1-20.2,41.4-20.1c2.5,0,1.9,4.5,1.7,4.7
	c-0.8,1-4,5.9-5.9,6.9c-1.1,0.6-2.7-2.9-4.1-2.3c-8,3.6-19.3,7.9-22.3,15.1c-1,2.4,1.3,4.2,2.3,4.2c10.8,0.1,20.5-6.4,22.6-8
	c2.3-1.7,8.4-5.9,11.4-8.1c5.7-3.6,7.6-6.1,7.8-6.5v-0.1l0.2-1.6c0.3-0.8,7.2-5.2,10.8-5.2c6.4,0,7.5,9.2,6.2,12.4
	c-2,4.7-7.1,8.8-9.1,13.5c-0.1,0.2,0,0.5,0.3,0.4c3.4-0.8,9.2-3.9,9.3-3.9c0.8-2,32.7-20.6,41-23.8c0.6-0.2,1.6-1,5.1-1
	c1.3,0,4.9,7.9,3.9,8.7c-3.7,2.9-2.9-3-5.4-2.3c-1.5,0.4-2.9,0.7-4.7,1.8c-2.8,1.6-7.3,3.4-10.7,5.5c-8.4,5.3-16.7,10.3-18.8,12
	c-0.1,0.2,0.4,2,1,2c5,0,21.7-13.5,27.3-13.5c2.7,0,0.7,3.4,0.4,5c0,0-4.2,7.3,0.9,7.3c2.9,0,11.3-5.3,11.5-5.3
	c4.9-3.7,5.2-5.5,6.6-7c5.5-7.5,27.1-43.4,38.2-43.4c3.7,0,1.7,4.2,1.6,4.5c-7.2,16.9-31.8,41.1-33.2,43.3
	c-8,9.4-21.3,37.1-19.5,37.1c5.2,0,20.7-19.5,20.1-26.7c-0.2-2.5-1.9-3.4-1.4-4.2c0.5-0.8,4.4,1.5,9.5-1.4
	c7.9-4.7,29.6-21.7,32.5-24.9c0.2-0.5-13.3-0.8-13.4-0.8c-1.3-0.2-3.3-1-3-2.3c0.9-1.7,2.2-5.6,4.8-6.3c1.8,0,17.5,0.1,17.9,0.2
	c0.8,0,1.7,0.2,2.6-0.3c2.3-2.3,4.6-4.8,5.9-6.3c1.8-1.4,3.3-2.8,5-2.8c2,0,2.1,2,1.5,3.4c-0.3,0.6-3.7,4.8-4,5.4
	c-0.1,0.2-0.6,0.9-0.6,0.9c1.2,0.3,5.4,0,5.3,0.4c-3.2,10.5-9.2,7.6-12.5,8.4c-0.3,0.1-0.5,0.6-0.7,0.8
	c-2.7,2.7-18.4,26.7-18.6,27.1c-0.3,0.6-1,2.4-0.1,2.4c1.3,0,15.1-7.2,25.1-10.5c63.1-20.5,93.7-11.8,97.8-11.6
	c1.8,0.1,2.8,1.4,2,2.3c-1.2,1.4-3.1,1.3-4,1.3c-0.6,0-22.6-8.2-84.6,10c-13.8,4.1-42.8,19.6-47,19.6c-10.4,0,9-24.8,8.8-24.8
	c-0.7,0-12.2,9.3-18.3,11.7c-4.6,2.5-9.3-0.7-8.3,0.4c1,1.1,2.2,2.1,1.7,5.3c-2.4,15-19.8,33-30.6,35.6c0,0-0.9,0.1-1.5,0
	c-10.5,0,12.5-39.9,11.9-40.7c-1.6,1.1-11.6,6.9-16.3,6.8c-10.8,0-5-9.8-6-9.7c-0.1,0-16.8,10.7-23.6,12.8c-0.6,0.2-3,1.2-5.4,0.4
	c-2.6-0.9-1.7-3.2-1.4-3.9c0.6-1.3,2.5-3.4,2.7-3.7c-1.5,0.6-11.2,4.9-15.5,6.9c-1.9,0.7-2.6,0.8-3.4,0.8c-3,0-3.7-1.2-3.4-2.3
	c0.3-1.6,1.7-3.1,3.8-5.3c2.7-2.7,6.6-8.7,7.9-11.7c0.9-2.2-0.5-5.4-1.5-5.4c-0.8,0-21,13.7-23.4,15c-2.9,2.5-20.9,11-29.6,10.9
	c-0.8,0.1-6.9-0.9-7.5-4.6c-0.4-2.4,1.7-6.6,0.9-6.6c-1.5,0-6.3,3.8-8.6,4.8c-1.3,0.9-4.1,2.1-8.4,4c-1.9,0.7-2.6,0.8-3.4,0.8
	c-3,0-3.7-1.2-3.4-2.3c0.3-1.6,1.7-3.1,3.8-5.3c2.7-2.7,6.6-8.7,7.9-11.7c0.9-2.2-0.5-5.4-1.5-5.4c-0.8,0-16,11.2-18.6,12.1
	c-2.9,1.7-14.2,8.7-22.5,8.7c-6.6,0-6.8-8-7.1-8c-0.7,0-6.3,3.1-6.9,3.1c-1.8,1-14.7,10.3-20.9,10.3c-10.4,0,9-24.8,8.8-24.8
	c-0.7,0-10.3,7.7-15.7,10.7c-12.1,7.2-20.3,15.3-31.1,15.2c-0.7,0-4.8-1.8-4.7-2.5c0.1-4.4,6.1-9.1,6.3-9.6c0.6-1.4,4.6-3.7,5.7-3.7
	c1.1,0,1,0.6,1.1,1.3c0.1,0.1,0.1,0.3,0.3,0.3c1.2,0,6-8.9,7.5-12.1c0.3-0.7-0.2-1.1-0.9-1.1C159.2,49.5,139,63.1,137.3,63.9"/>
<polygon class="st0" points="252.1,89.7 274.8,89.7 273.7,94.6 266.4,94.6 263.1,108.1 255,108.1 258.2,94.6 250.9,94.6 "/>
<polygon class="st0" points="274.1,108.1 278.5,89.7 286.6,89.7 282.3,108.1 "/>
<path class="st0" d="M299.2,101.7c3.8,0,4.2,0.8,3.6,3.2c-0.4,1.6-0.5,2.8-0.4,3.2h8.2l0.1-0.6c-1,0-0.7-0.8-0.1-3.2
	c0.9-3.7-0.6-4.2-3-4.9c3-0.6,4.7-2.4,5.2-4.5c0.9-3.6-1.5-5.2-9.7-5.2h-11.7l-4.4,18.4h8.1l1.5-6.4H299.2z M298.5,94h3.8
	c1.9,0,3.1,0.6,2.8,1.9c-0.3,1.3-1.8,1.7-4.3,1.7h-3.2L298.5,94z"/>
<polygon class="st0" points="314.3,108.1 318.7,89.7 339,89.7 337.9,94 325.8,94 325.2,96.7 335.4,96.7 334.4,101 324.2,101 
	323.5,103.8 336.1,103.8 335.1,108.1 "/>
<path class="st0" d="M355.1,95.1c0-0.6-0.3-1-0.9-1.3c-0.5-0.2-1.2-0.3-2-0.3c-1.8,0-2.7,0.4-2.8,1c-0.7,2.8,14,1,12.4,7.7
	c-1,4.3-6.3,6.3-13.1,6.3c-6.5,0-10.1-2.8-9.5-6.2h7.8c0,0.7,0.4,1.1,1,1.5c0.6,0.3,1.4,0.5,2.2,0.5c2,0,3.5-0.5,3.7-1.4
	c0.7-2.8-14.1-0.9-12.4-7.9c0.9-3.9,5.9-5.9,12.2-5.9c6.9,0,9.4,2.6,9.2,5.8h-7.8V95.1z"/>
</svg>
